<?xml version="1.0" encoding="UTF-8" standalone="no"?>
<svg width="13px" height="20px" viewBox="0 0 13 20" version="1.1" xmlns="http://www.w3.org/2000/svg" xmlns:xlink="http://www.w3.org/1999/xlink">
    <!-- Generator: Sketch 3.8.3 (29802) - http://www.bohemiancoding.com/sketch -->
    <title>Fill 30</title>
    <desc>Created with Sketch.</desc>
    <defs></defs>
    <g id="Main" stroke="none" stroke-width="1" fill="none" fill-rule="evenodd">
        <g id="Extra-Small-Devices" transform="translate(-20.000000, -4421.000000)" fill="#D8D8D8">
            <g id="Footer" transform="translate(0.000000, 3357.000000)">
                <g id="onde" transform="translate(20.000000, 1064.000000)">
                    <path d="M0.404,8.641 L4.983,18.338 C5.118,18.63 5.32,18.832 5.567,18.989 C5.836,19.146 6.128,19.236 6.42,19.236 C6.712,19.236 7.003,19.146 7.273,18.989 C7.52,18.832 7.722,18.63 7.856,18.338 L12.435,8.641 C12.705,8.058 12.839,7.317 12.839,6.397 C12.839,4.646 12.211,3.12 10.954,1.885 C9.697,0.628 8.193,0 6.42,0 C4.647,0 3.143,0.628 1.886,1.885 C0.629,3.12 0,4.646 0,6.397 C0,7.317 0.135,8.058 0.404,8.641 L0.404,8.641 Z M6.42,3.21 C7.295,3.21 8.058,3.524 8.687,4.152 C9.315,4.781 9.63,5.521 9.63,6.397 C9.63,7.294 9.315,8.035 8.687,8.664 C8.058,9.292 7.295,9.606 6.42,9.606 C5.544,9.606 4.781,9.292 4.153,8.664 C3.524,8.035 3.21,7.294 3.21,6.397 C3.21,5.521 3.524,4.781 4.153,4.152 C4.781,3.524 5.544,3.21 6.42,3.21 L6.42,3.21 Z" id="Fill-30"></path>
                </g>
            </g>
        </g>
    </g>
</svg>