<?xml version="1.0" encoding="UTF-8" standalone="no"?>
<svg width="25px" height="27px" viewBox="0 0 25 27" version="1.1" xmlns="http://www.w3.org/2000/svg" xmlns:xlink="http://www.w3.org/1999/xlink">
    <!-- Generator: Sketch 3.8.3 (29802) - http://www.bohemiancoding.com/sketch -->
    <title>Fill 171</title>
    <desc>Created with Sketch.</desc>
    <defs></defs>
    <g id="Main" stroke="none" stroke-width="1" fill="none" fill-rule="evenodd">
        <g id="Extra-Small-Devices" transform="translate(-410.000000, -3687.000000)" fill="#363552">
            <g id="Items" transform="translate(0.000000, 3497.000000)">
                <g id="Item" transform="translate(39.000000, 174.000000)">
                    <g id="curtiu" transform="translate(363.000000, 9.000000)">
                        <path d="M8.61343315,31.2355613 C9.02152215,31.6411018 9.48809524,31.843872 10.0716365,31.843872 L14.768559,31.843872 C15.0011957,31.843872 15.7601892,32.0466422 17.0143481,32.4818878 C18.3568829,32.9455471 19.5226658,33.2929687 20.544188,33.5538578 C21.5358183,33.7863332 22.5573404,33.9025709 23.6074548,33.9025709 L25.7076835,33.9025709 C27.224371,33.9025709 28.4785298,33.4673252 29.411676,32.5981255 C30.3461219,31.7276343 30.7828031,30.5678403 30.7828031,29.0606247 C31.4248284,28.2495439 31.7458411,27.2641064 31.7458411,26.190845 C31.7458411,25.9583696 31.7172489,25.7271857 31.687357,25.4947103 C32.1253379,24.7701619 32.3293824,23.9874947 32.3293824,23.1467086 C32.3293824,22.7695819 32.2708983,22.3937466 32.183822,22.0450335 C32.7374714,21.2339526 33,20.3634614 33,19.378024 C33,18.2763488 32.591911,17.3206166 31.7458411,16.5082442 C30.9296631,15.6971633 29.9666251,15.2903314 28.8294344,15.2903314 L25.9416199,15.2903314 C26.4653774,14.2183614 26.727906,13.1748052 26.727906,12.1596625 C26.727906,10.913336 26.5537534,9.89948495 26.1742566,9.17364507 C25.7947598,8.42068305 25.2411104,7.86919972 24.5120087,7.52177814 C23.782907,7.17435656 22.9654294,7 22.0608754,7 C21.507226,7 21.0107611,7.20277022 20.6026721,7.60831065 C20.136099,8.04355628 19.8150863,8.62345327 19.639634,9.34800162 C19.4641817,10.07255 19.2900291,10.740271 19.1444687,11.4067005 C18.9976087,12.0447164 18.7649719,12.5083756 18.5024433,12.7692647 C17.9773862,13.3491617 17.3938449,14.0440049 16.7804117,14.8563773 C15.6731129,16.2473551 14.9141194,17.0881412 14.5346226,17.3490303 L10.0716365,17.3490303 C9.51798711,17.3490303 9.02152215,17.5518005 8.61343315,17.9573409 C8.2040445,18.3641729 8,18.8562458 8,19.4077292 L8,29.7851731 C8,30.3366564 8.2040445,30.8287294 8.61343315,31.2355613 L8.61343315,31.2355613 Z M11.1217509,27.6980605 C11.4128717,27.6980605 11.6468081,27.8142982 11.8508526,28.0170684 C12.0548971,28.2198387 12.1718653,28.4807277 12.1718653,28.7416168 C12.1718653,29.0322111 12.0548971,29.2633949 11.8508526,29.4661652 C11.6468081,29.6702269 11.4128717,29.7851731 11.1217509,29.7851731 C10.8306301,29.7851731 10.5966937,29.6702269 10.3926492,29.4661652 C10.1886047,29.2633949 10.0716365,29.0322111 10.0716365,28.7416168 C10.0716365,28.4807277 10.1886047,28.2198387 10.3926492,28.0170684 C10.5966937,27.8142982 10.8306301,27.6980605 11.1217509,27.6980605 L11.1217509,27.6980605 Z M14.2435018,19.4077292 L14.768559,19.4077292 C14.9427116,19.4077292 15.1480557,19.3496103 15.3521002,19.2630778 C15.5561447,19.1752537 15.7887815,19.0306024 16.0227178,18.8278322 C16.2267623,18.6250619 16.4606987,18.4507054 16.6647432,18.2479352 C16.8388958,18.0735786 17.0728322,17.8423947 17.3067686,17.5518005 C17.5394053,17.2624977 17.7434498,17.0300223 17.8890102,16.8569573 C18.0059784,16.6826008 18.1814307,16.4798305 18.3854752,16.2189415 C18.6194115,15.9283472 18.7350801,15.7836958 18.7649719,15.725577 C19.3771054,15.0010286 19.8150863,14.5076642 20.047723,14.2467751 C20.4857039,13.7831158 20.8067166,13.2032188 20.9821689,12.4786705 C21.1563215,11.7838273 21.3317738,11.0876926 21.4773342,10.4496768 C21.6527864,9.81166091 21.8568309,9.34800162 22.1193595,9.05869889 C23.1408817,9.05869889 23.8114993,9.31958796 24.1611042,9.81166091 C24.4821169,10.3334391 24.6575691,11.1161063 24.6575691,12.1596625 C24.6575691,12.7976784 24.3950405,13.6681696 23.8699834,14.7685532 C23.3449262,15.8702284 23.0823976,16.7110144 23.0823976,17.3490303 L28.8294344,17.3490303 C29.3830838,17.3490303 29.8795488,17.5518005 30.2876378,17.9573409 C30.7256186,18.3925865 30.9296631,18.8562458 30.9296631,19.4077292 C30.9296631,19.7848559 30.8126949,20.21881 30.5787586,20.7121745 C30.31623,21.2042475 30.0251092,21.4664281 29.6755043,21.4948417 C29.8496569,21.6691983 29.9666251,21.9300873 30.0835933,22.2478037 C30.1992618,22.5965168 30.2577459,22.8858196 30.2577459,23.1467086 C30.2577459,23.9009622 29.9666251,24.538978 29.3830838,25.0891698 C29.5871283,25.4365914 29.6755043,25.8137182 29.6755043,26.190845 C29.6755043,26.5963854 29.5871283,27.0032174 29.3830838,27.3790526 C29.2076315,27.7858846 28.9451029,28.0751873 28.6253899,28.2495439 C28.6825743,28.5685518 28.7124662,28.8578545 28.7124662,29.1471572 C28.7124662,30.9449671 27.6623518,31.843872 25.5907153,31.843872 L23.6074548,31.843872 C22.2064358,31.843872 20.3401435,31.4383315 18.0644625,30.6556643 C18.0059784,30.6556643 17.8318257,30.5975455 17.5692972,30.5097214 C17.3067686,30.4231889 17.1313163,30.3366564 17.0143481,30.3069512 C16.8687877,30.2488324 16.6933354,30.192005 16.4308068,30.104181 C16.1682782,30.0460622 15.9642337,29.9879433 15.8186733,29.931116 C15.643221,29.9014108 15.4690684,29.8729971 15.2637243,29.8432919 C15.0895716,29.8148783 14.9141194,29.7851731 14.768559,29.7851731 L14.2435018,29.7851731 L14.2435018,19.4077292 L14.2435018,19.4077292 Z" id="Fill-171"></path>
                    </g>
                </g>
            </g>
        </g>
    </g>
</svg>